<svg width="620" height="920" viewBox="0 0 620 920" fill="none" xmlns="http://www.w3.org/2000/svg">
<g opacity="0.32">
<path d="M345.824 -509.048L446.951 -439.275V729.403L345.824 659.586V-509.048Z" stroke="#F5A764"/>
<path d="M274.31 849.14L173.184 919.047V-319.719L274.31 -249.902V849.14Z" stroke="#F5A764"/>
<path d="M519.937 -80.4204V-80.3751L520.153 -80.226L619.5 -11.6719V303.53L519.525 371.903L519.523 371.905L483.252 396.941V367.616L518.158 343.541L518.374 343.392V343.13V-51.9022V-52.1644L518.158 -52.3135L483.072 -76.5691V-105.893L519.937 -80.4204Z" stroke="#F5A764"/>
<path d="M100.522 37.9182L100.522 37.918L137.153 12.6554V41.9806L101.888 66.3265L101.671 66.4757L101.672 66.7383L101.942 461.68L101.942 461.942L102.157 462.091L137.063 486.211V515.536L102.771 491.853L102.77 491.853L0.5 421.359V106.788L100.522 37.9182Z" stroke="#F5A764"/>
</g>
</svg>
