<svg width="24" height="88" viewBox="0 0 24 88" fill="none" xmlns="http://www.w3.org/2000/svg">
<path d="M11.9999 2.75C12.1899 2.75 12.3799 2.82 12.5299 2.97L18.5999 9.04C18.8899 9.33 18.8899 9.81 18.5999 10.1C18.3099 10.39 17.8299 10.39 17.5399 10.1L11.9999 4.56L6.45988 10.1C6.16988 10.39 5.68988 10.39 5.39988 10.1C5.10988 9.81 5.10988 9.33 5.39988 9.04L11.4699 2.97C11.6199 2.82 11.8099 2.75 11.9999 2.75Z" fill="white"/>
<path d="M12 2.92C12.41 2.92 12.75 3.26 12.75 3.67L12.75 20.5C12.75 20.91 12.41 21.25 12 21.25C11.59 21.25 11.25 20.91 11.25 20.5L11.25 3.67C11.25 3.26 11.59 2.92 12 2.92Z" fill="white"/>
<path d="M10.46 84.0183L5.7 79.3143L5.7 80.6023L10.18 85.0543L5.7 85.0543L5.7 86.0343L15.5 86.0343L15.5 85.0543L10.754 85.0543L15.5 80.4623L15.5 79.1743L10.46 84.0183ZM5.7 74.2172L7.52 75.3372L7.52 74.4412L5.7 73.0972L5.7 74.2172ZM8.332 74.8192C8.332 75.8972 8.682 76.7652 9.382 77.4512C10.082 78.1372 10.95 78.4732 12 78.4732C13.064 78.4732 13.946 78.1232 14.632 77.4372C15.318 76.7512 15.668 75.8552 15.668 74.7492C15.668 73.3912 15.052 72.2852 14.058 71.6692L13.582 72.4812C14.296 72.8732 14.772 73.6712 14.772 74.7352C14.772 76.2332 13.876 77.3392 12.462 77.5212L12.462 71.3752C12.28 71.3612 12.126 71.3472 12.028 71.3472C11.034 71.3472 10.166 71.6692 9.438 72.3132C8.696 72.9432 8.332 73.7832 8.332 74.8192ZM9.228 74.8192C9.228 74.1892 9.438 73.6292 9.844 73.1532C10.25 72.6772 10.824 72.3972 11.566 72.2992L11.566 77.5212C10.18 77.3392 9.228 76.2752 9.228 74.8192ZM14.618 64.0114C13.904 63.2974 13.036 62.9334 12 62.9334C10.964 62.9334 10.096 63.2974 9.396 64.0114C8.682 64.7254 8.332 65.5934 8.332 66.6154C8.332 67.6374 8.682 68.5194 9.396 69.2334C10.096 69.9474 10.964 70.2974 12 70.2974C13.036 70.2974 13.904 69.9474 14.618 69.2334C15.318 68.5194 15.668 67.6374 15.668 66.6154C15.668 65.5934 15.318 64.7254 14.618 64.0114ZM13.974 68.5754C13.428 69.1074 12.77 69.3734 12 69.3734C11.23 69.3734 10.572 69.1074 10.04 68.5754C9.494 68.0434 9.228 67.3854 9.228 66.6154C9.228 65.8454 9.494 65.1874 10.04 64.6554C10.572 64.1234 11.23 63.8574 12 63.8574C12.77 63.8574 13.428 64.1234 13.974 64.6554C14.506 65.1874 14.772 65.8454 14.772 66.6154C14.772 67.3854 14.506 68.0434 13.974 68.5754ZM15.5 56.9632L5.28 56.9632L5.28 57.8872L15.5 57.8872L15.5 56.9632ZM7.52 50.7324L7.52 49.6824L5.7 51.1664L5.7 52.2584L7.52 53.7424L7.52 52.6924L6.302 51.7124L7.52 50.7324ZM8.332 51.7684C8.332 52.8464 8.682 53.7144 9.382 54.4004C10.082 55.0864 10.95 55.4224 12 55.4224C13.064 55.4224 13.946 55.0724 14.632 54.3864C15.318 53.7004 15.668 52.8044 15.668 51.6984C15.668 50.3404 15.052 49.2344 14.058 48.6184L13.582 49.4304C14.296 49.8224 14.772 50.6204 14.772 51.6844C14.772 53.1824 13.876 54.2884 12.462 54.4704L12.462 48.3244C12.28 48.3104 12.126 48.2964 12.028 48.2964C11.034 48.2964 10.166 48.6184 9.438 49.2624C8.696 49.8924 8.332 50.7324 8.332 51.7684ZM9.228 51.7684C9.228 51.1384 9.438 50.5784 9.844 50.1024C10.25 49.6264 10.824 49.3464 11.566 49.2484L11.566 54.4704C10.18 54.2884 9.228 53.2244 9.228 51.7684ZM8.332 43.5506C8.332 44.6006 8.752 45.3846 9.592 45.9026L8.5 45.9026L8.5 46.8266L15.5 46.8266L15.5 45.9026L11.832 45.9026C10.054 45.9026 9.228 44.9786 9.228 43.6346C9.228 42.4166 9.956 41.7306 11.202 41.7306L15.5 41.7306L15.5 40.8066L11.202 40.8066C9.452 40.8066 8.332 41.8566 8.332 43.5506Z" fill="white"/>
</svg>
