<svg width="620" height="920" viewBox="0 0 620 920" fill="none" xmlns="http://www.w3.org/2000/svg">
<g opacity="0.32">
<path d="M345.824 0.952436L446.951 70.7249V1239.4L345.824 1169.59V0.952436Z" stroke="#F5A764"/>
<path d="M274.31 1359.14L173.184 1429.05V190.281L274.31 260.098V1359.14Z" stroke="#F5A764"/>
<path d="M519.937 429.58V429.625L520.153 429.774L619.5 498.328V813.53L519.525 881.903L519.523 881.905L483.252 906.941V877.616L518.158 853.541L518.374 853.392V853.13V458.098V457.836L518.158 457.687L483.072 433.431V404.107L519.937 429.58Z" stroke="#F5A764"/>
<path d="M100.522 547.918L100.522 547.918L137.153 522.655V551.981L101.888 576.326L101.672 576.476L101.672 576.738L101.942 971.68L101.942 971.942L102.157 972.091L137.063 996.211V1025.54L102.771 1001.85L102.77 1001.85L0.5 931.359V616.788L100.522 547.918Z" stroke="#F5A764"/>
</g>
</svg>
