<svg width="32" height="32" viewBox="0 0 32 32" fill="none" xmlns="http://www.w3.org/2000/svg">
<path d="M20.0003 30.3334H12.0003C4.76033 30.3334 1.66699 27.2401 1.66699 20.0001V12.0001C1.66699 4.76008 4.76033 1.66675 12.0003 1.66675H20.0003C27.2403 1.66675 30.3337 4.76008 30.3337 12.0001V20.0001C30.3337 27.2401 27.2403 30.3334 20.0003 30.3334ZM12.0003 3.66675C5.85366 3.66675 3.66699 5.85341 3.66699 12.0001V20.0001C3.66699 26.1467 5.85366 28.3334 12.0003 28.3334H20.0003C26.147 28.3334 28.3337 26.1467 28.3337 20.0001V12.0001C28.3337 5.85341 26.147 3.66675 20.0003 3.66675H12.0003Z" fill="white"/>
<path d="M11.9997 14.3333C9.97301 14.3333 8.33301 12.6933 8.33301 10.6667C8.33301 8.64 9.97301 7 11.9997 7C14.0263 7 15.6663 8.64 15.6663 10.6667C15.6663 12.6933 14.0263 14.3333 11.9997 14.3333ZM11.9997 9C11.0797 9 10.333 9.74667 10.333 10.6667C10.333 11.5867 11.0797 12.3333 11.9997 12.3333C12.9197 12.3333 13.6663 11.5867 13.6663 10.6667C13.6663 9.74667 12.9197 9 11.9997 9Z" fill="white"/>
<path d="M3.56035 26.2666C3.24035 26.2666 2.92035 26.1066 2.73368 25.8266C2.42701 25.3733 2.54701 24.7466 3.01368 24.4399L9.58701 20.0266C11.027 19.0532 13.0137 19.1732 14.3203 20.2799L14.7603 20.6666C15.427 21.2399 16.5603 21.2399 17.2137 20.6666L22.7603 15.9066C24.1737 14.6932 26.4003 14.6932 27.827 15.9066L30.0003 17.7732C30.4137 18.1332 30.467 18.7599 30.107 19.1866C29.747 19.5999 29.1203 19.6532 28.6937 19.2932L26.5203 17.4266C25.8537 16.8532 24.7203 16.8532 24.0537 17.4266L18.507 22.1866C17.0937 23.3999 14.867 23.3999 13.4403 22.1866L13.0003 21.7999C12.387 21.2799 11.3737 21.2266 10.6937 21.6932L4.12035 26.1066C3.94701 26.2132 3.74701 26.2666 3.56035 26.2666Z" fill="white"/>
</svg>
