<svg width="32" height="32" viewBox="0 0 32 32" fill="none" xmlns="http://www.w3.org/2000/svg">
<path d="M8.93337 25H5.53339C3.08005 25 1.66669 23.5866 1.66669 21.1333V5.53333C1.66669 3.07999 3.08005 1.66663 5.53339 1.66663H11.2667C13.72 1.66663 15.1333 3.07999 15.1333 5.53333V7.99996C15.1333 8.54663 14.68 8.99996 14.1333 8.99996C13.5867 8.99996 13.1333 8.54663 13.1333 7.99996V5.53333C13.1333 4.17333 12.6267 3.66663 11.2667 3.66663H5.53339C4.17339 3.66663 3.66669 4.17333 3.66669 5.53333V21.1333C3.66669 22.4933 4.17339 23 5.53339 23H8.93337C9.48004 23 9.93337 23.4533 9.93337 24C9.93337 24.5466 9.48004 25 8.93337 25Z" fill="white"/>
<path d="M19.9469 30.3333H12.1602C9.48024 30.3333 7.93359 28.7867 7.93359 26.1067V11.2266C7.93359 8.54664 9.48024 7 12.1602 7H19.9469C22.6269 7 24.1602 8.54664 24.1602 11.2266V26.1067C24.1602 28.7867 22.6269 30.3333 19.9469 30.3333ZM12.1602 9C10.5602 9 9.93359 9.62664 9.93359 11.2266V26.1067C9.93359 27.7067 10.5602 28.3333 12.1602 28.3333H19.9469C21.5336 28.3333 22.1602 27.7067 22.1602 26.1067V11.2266C22.1602 9.62664 21.5336 9 19.9469 9H12.1602Z" fill="white"/>
<path d="M26.4665 25H23.1598C22.6131 25 22.1598 24.5466 22.1598 24C22.1598 23.4533 22.6131 23 23.1598 23H26.4665C27.8265 23 28.3331 22.4933 28.3331 21.1333V5.53333C28.3331 4.17333 27.8265 3.66663 26.4665 3.66663H20.7331C19.3731 3.66663 18.8665 4.17333 18.8665 5.53333V7.99996C18.8665 8.54663 18.4132 8.99996 17.8665 8.99996C17.3198 8.99996 16.8665 8.54663 16.8665 7.99996V5.53333C16.8665 3.07999 18.2798 1.66663 20.7331 1.66663H26.4665C28.9198 1.66663 30.3331 3.07999 30.3331 5.53333V21.1333C30.3331 23.5866 28.9198 25 26.4665 25Z" fill="white"/>
<path d="M18.6666 15.6666H13.3333C12.7866 15.6666 12.3333 15.2133 12.3333 14.6666C12.3333 14.12 12.7866 13.6666 13.3333 13.6666H18.6666C19.2133 13.6666 19.6666 14.12 19.6666 14.6666C19.6666 15.2133 19.2133 15.6666 18.6666 15.6666Z" fill="white"/>
<path d="M18.6666 19.6666H13.3333C12.7866 19.6666 12.3333 19.2133 12.3333 18.6666C12.3333 18.12 12.7866 17.6666 13.3333 17.6666H18.6666C19.2133 17.6666 19.6666 18.12 19.6666 18.6666C19.6666 19.2133 19.2133 19.6666 18.6666 19.6666Z" fill="white"/>
<path d="M16 30.3334C15.4533 30.3334 15 29.88 15 29.3334V25.3334C15 24.7867 15.4533 24.3334 16 24.3334C16.5467 24.3334 17 24.7867 17 25.3334V29.3334C17 29.88 16.5467 30.3334 16 30.3334Z" fill="white"/>
</svg>
