<svg width="32" height="32" viewBox="0 0 32 32" fill="none" xmlns="http://www.w3.org/2000/svg">
<path d="M27.1733 28.1734C26.9066 28.1734 26.6533 28.0667 26.4666 27.8801L17.9599 19.3734C17.5733 18.9867 17.5733 18.3467 17.9599 17.96L28.2666 7.65339C28.5199 7.40005 28.9066 7.30672 29.2533 7.40005C29.5999 7.50672 29.8666 7.78672 29.9466 8.13339C30.1999 9.26672 30.3333 10.5334 30.3333 12V20C30.3333 23.6934 29.5599 26.1867 27.8799 27.8801C27.6933 28.0667 27.4133 28.1067 27.1733 28.1734ZM20.0799 18.6667L27.0933 25.68C27.9333 24.3867 28.3333 22.5467 28.3333 20V12C28.3333 11.4534 28.3199 10.9467 28.2799 10.4667L20.0799 18.6667Z" fill="white"/>
<path d="M8.36001 29.9733C8.28001 29.9733 8.21336 29.96 8.13336 29.9466C3.72003 28.9333 1.66669 25.7733 1.66669 20V12C1.66669 4.75996 4.76002 1.66663 12 1.66663H20C25.7734 1.66663 28.9333 3.71997 29.9467 8.1333C30.0267 8.46663 29.92 8.82663 29.68 9.06663L9.06667 29.68C8.88 29.8666 8.62667 29.9733 8.36001 29.9733ZM12 3.66663C5.85335 3.66663 3.66669 5.85329 3.66669 12V20C3.66669 24.6266 4.9467 26.9466 8.05337 27.8666L27.8534 8.06663C26.9467 4.95996 24.6133 3.67995 19.9867 3.67995H12V3.66663Z" fill="white"/>
<path d="M19.9998 30.3334H11.9998C10.5332 30.3334 9.27984 30.2134 8.13317 29.9467C7.77317 29.8667 7.49314 29.6 7.39981 29.2534C7.29314 28.9067 7.39981 28.5334 7.65315 28.2667L17.9598 17.96C18.3465 17.5734 18.9865 17.5734 19.3732 17.96L27.8798 26.4667C28.0665 26.6534 28.1732 26.9067 28.1732 27.1734C28.1732 27.44 28.0665 27.6934 27.8798 27.88C26.1865 29.56 23.6932 30.3334 19.9998 30.3334ZM10.4665 28.2801C10.9465 28.3201 11.4532 28.3334 11.9998 28.3334H19.9998C22.5598 28.3334 24.3865 27.9334 25.6798 27.0934L18.6665 20.08L10.4665 28.2801Z" fill="white"/>
<path d="M12.1599 17.7466C11.3199 17.7466 10.4799 17.44 9.81322 16.8133C7.69322 14.8 6.83992 12.5867 7.34659 10.4267C7.85325 8.21332 9.78657 6.71997 12.1599 6.71997C14.5332 6.71997 16.4666 8.21332 16.9733 10.4267C17.4666 12.6 16.6132 14.8 14.4932 16.8133C13.8399 17.4266 12.9999 17.7466 12.1599 17.7466ZM9.29324 10.8666C8.86658 12.68 10.0932 14.3067 11.1999 15.36C11.7466 15.88 12.5866 15.88 13.1199 15.36C14.2132 14.32 15.4399 12.6933 15.0266 10.8666C14.6666 9.27997 13.2532 8.70664 12.1599 8.70664C11.0666 8.70664 9.66658 9.27997 9.29324 10.8666Z" fill="white"/>
<path d="M12.1998 12.6534C11.4665 12.6534 10.8665 12.0534 10.8665 11.32C10.8665 10.5867 11.4532 9.98669 12.1998 9.98669H12.2132C12.9465 9.98669 13.5465 10.5867 13.5465 11.32C13.5465 12.0534 12.9332 12.6534 12.1998 12.6534Z" fill="white"/>
</svg>
