<svg width="32" height="32" viewBox="0 0 32 32" fill="none" xmlns="http://www.w3.org/2000/svg">
<path d="M20 30.3333H12C4.76002 30.3333 1.66669 27.24 1.66669 20V12C1.66669 4.75996 4.76002 1.66663 12 1.66663H20C27.24 1.66663 30.3334 4.75996 30.3334 12V20C30.3334 27.24 27.24 30.3333 20 30.3333ZM12 3.66663C5.85335 3.66663 3.66669 5.85329 3.66669 12V20C3.66669 26.1466 5.85335 28.3333 12 28.3333H20C26.1467 28.3333 28.3334 26.1466 28.3334 20V12C28.3334 5.85329 26.1467 3.66663 20 3.66663H12Z" fill="white"/>
<path d="M11.4264 21.36C11.173 21.36 10.9197 21.2667 10.7197 21.0667C10.333 20.68 10.333 20.04 10.7197 19.6533L19.453 10.92C19.8397 10.5333 20.4797 10.5333 20.8663 10.92C21.253 11.3067 21.253 11.9467 20.8663 12.3333L12.133 21.0667C11.933 21.2667 11.6797 21.36 11.4264 21.36Z" fill="white"/>
<path d="M11.9733 14.8133C10.52 14.8133 9.33331 13.6267 9.33331 12.1733C9.33331 10.72 10.52 9.53333 11.9733 9.53333C13.4267 9.53333 14.6133 10.72 14.6133 12.1733C14.6133 13.6267 13.4267 14.8133 11.9733 14.8133ZM11.9733 11.5467C11.6267 11.5467 11.3333 11.8267 11.3333 12.1867C11.3333 12.5467 11.6133 12.8267 11.9733 12.8267C12.3333 12.8267 12.6133 12.5467 12.6133 12.1867C12.6133 11.8267 12.32 11.5467 11.9733 11.5467Z" fill="white"/>
<path d="M20.6934 22.4533C19.24 22.4533 18.0534 21.2666 18.0534 19.8133C18.0534 18.36 19.24 17.1733 20.6934 17.1733C22.1467 17.1733 23.3334 18.36 23.3334 19.8133C23.3334 21.2666 22.1467 22.4533 20.6934 22.4533ZM20.6934 19.1867C20.3467 19.1867 20.0534 19.4667 20.0534 19.8267C20.0534 20.1867 20.3334 20.4667 20.6934 20.4667C21.0534 20.4667 21.3334 20.1867 21.3334 19.8267C21.3334 19.4667 21.0534 19.1867 20.6934 19.1867Z" fill="white"/>
</svg>
