<svg width="56" height="56" viewBox="0 0 56 56" fill="none" xmlns="http://www.w3.org/2000/svg">
<path d="M18.363 49.6534C16.5197 49.6534 14.7697 49.21 13.2297 48.3233C9.58967 46.2233 7.58301 41.9534 7.58301 36.33L7.58301 19.6933C7.58301 14.0467 9.58967 9.80002 13.2297 7.70002C16.8697 5.60001 21.5597 5.99668 26.4597 8.82002L40.8563 17.1267C45.733 19.95 48.4397 23.8234 48.4397 28.0234C48.4397 32.2234 45.7563 36.0967 40.8563 38.92L26.4597 47.2267C23.6363 48.8367 20.883 49.6534 18.363 49.6534ZM18.363 9.84668C17.103 9.84668 15.983 10.1267 14.9797 10.71C12.4597 12.1567 11.083 15.3533 11.083 19.6933L11.083 36.3067C11.083 40.6467 12.4597 43.82 14.9797 45.29C17.4997 46.76 20.953 46.34 24.7097 44.17L39.1063 35.8634C42.863 33.6934 44.9397 30.9167 44.9397 28C44.9397 25.0834 42.863 22.3067 39.1063 20.1367L24.7097 11.83C22.423 10.5233 20.2763 9.84668 18.363 9.84668Z" fill="white"/>
</svg>
