<svg width="24" height="24" viewBox="0 0 24 24" fill="none" xmlns="http://www.w3.org/2000/svg">
<path d="M17 21.2501H7C3.35 21.2501 1.25 19.1501 1.25 15.5001V8.50012C1.25 4.85012 3.35 2.75012 7 2.75012H17C20.65 2.75012 22.75 4.85012 22.75 8.50012V15.5001C22.75 19.1501 20.65 21.2501 17 21.2501ZM7 4.25012C4.14 4.25012 2.75 5.64012 2.75 8.50012V15.5001C2.75 18.3601 4.14 19.7501 7 19.7501H17C19.86 19.7501 21.25 18.3601 21.25 15.5001V8.50012C21.25 5.64012 19.86 4.25012 17 4.25012H7Z" fill="white"/>
<path d="M11.9988 12.8701C11.1588 12.8701 10.3088 12.6101 9.6588 12.0801L6.5288 9.58009C6.2088 9.32009 6.14881 8.85009 6.4088 8.53009C6.66881 8.21009 7.13881 8.1501 7.45881 8.4101L10.5888 10.9101C11.3488 11.5201 12.6388 11.5201 13.3988 10.9101L16.5288 8.4101C16.8488 8.1501 17.3288 8.20009 17.5788 8.53009C17.8388 8.85009 17.7888 9.33009 17.4588 9.58009L14.3288 12.0801C13.6888 12.6101 12.8388 12.8701 11.9988 12.8701Z" fill="white"/>
</svg>
