<?xml version="1.0" encoding="UTF-8"?>
<svg id="Ebene_1" data-name="Ebene 1" xmlns="http://www.w3.org/2000/svg" xmlns:xlink="http://www.w3.org/1999/xlink" viewBox="0 0 500 500">
  <defs>
    <style>
      .cls-1 {
        fill: url(#linear-gradient);
      }

      .cls-2 {
        font-family: HJGothamMedium, HJGothamMedium;
        font-size: 22.97px;
      }

      .cls-2, .cls-3 {
        fill: #fffcf4;
      }

      .cls-4 {
        letter-spacing: .39em;
      }

      .cls-5 {
        letter-spacing: .4em;
      }

      .cls-3 {
        font-family: Cinzel-Bold, Cinzel;
        font-size: 56.41px;
        font-weight: 700;
      }

      .cls-6 {
        letter-spacing: -.04em;
      }

      .cls-7 {
        fill: #1d1d1b;
        font-family: MyriadPro-Regular, 'Myriad Pro';
        font-size: 5.96px;
      }

      .cls-8 {
        letter-spacing: .02em;
      }

      .cls-9 {
        letter-spacing: .03em;
      }

      .cls-10 {
        letter-spacing: .03em;
      }

      .cls-11 {
        letter-spacing: .03em;
      }

      .cls-12 {
        letter-spacing: .03em;
      }

      .cls-13 {
        letter-spacing: 0em;
      }

      .cls-14 {
        letter-spacing: .01em;
      }
    </style>
    <linearGradient id="linear-gradient" x1="179.34" y1="180.58" x2="316.08" y2="180.58" gradientUnits="userSpaceOnUse">
      <stop offset="0" stop-color="#ffeebf"/>
      <stop offset="1" stop-color="#fbc062"/>
    </linearGradient>
  </defs>
  <text class="cls-3" transform="translate(-2.29 356.52)"><tspan class="cls-14" x="0" y="0">Q</tspan><tspan class="cls-10" x="50.37" y="0">P </tspan><tspan class="cls-13" x="104.86" y="0">G</tspan><tspan class="cls-8" x="152.3" y="0">R</tspan><tspan class="cls-12" x="195.45" y="0">EE</tspan><tspan class="cls-11" x="269.69" y="0">N </tspan><tspan class="cls-6" x="335.97" y="0">P</tspan><tspan class="cls-9" x="370.88" y="0">A</tspan><tspan class="cls-8" x="413.02" y="0">R</tspan><tspan class="cls-9" x="456.17" y="0">K</tspan></text>
  <text class="cls-2" transform="translate(88.59 407.44)"><tspan class="cls-5" x="0" y="0">RESIDENCES </tspan><tspan class="cls-4" x="224.04" y="0">B</tspan><tspan class="cls-5" x="245.33" y="0">Y QP</tspan></text>
  <path class="cls-1" d="M316.08,125.43v141.23c-12.66,0-18.87-7.38-18.99-20-.32-34.28-.18-74.86,0-109.14.04-6.87,3.91-10.91,10.37-11.87.85-.13,1.72-.17,2.58-.17l6.04-.04ZM272.23,141.77c-9.9,1.49-13.97,9.48-14.07,20.16-.15,17.82-.15,30.58,0,48.4,0,16.34,9.71,18.63,19.08,20.87,0-3.29.03-1.71,0-6.09-.16-22.06.24-35.69-.19-57.75-.23-11.82,3.81-20.97,16.31-26.33-8.11,0-14.76-.22-21.14.74ZM179.34,125.43v141.23c12.82,0,18.87-7.38,18.99-20,.32-34.28.18-74.86,0-109.14-.04-6.87-3.91-10.91-10.37-11.87-.85-.13-1.72-.17-2.58-.17l-6.04-.04ZM202.05,141.03c12.51,5.36,16.55,14.51,16.31,26.33-.44,22.06-.03,35.68-.19,57.75-.03,4.38,0,2.81,0,6.09,9.38-2.25,19.08-4.53,19.08-20.87.15-17.82.15-30.58,0-48.4-.09-10.67-4.17-18.67-14.07-20.16-6.39-.96-13.03-.74-21.14-.74ZM276.65,125.33c-11.62,0-22.47,5.8-28.94,15.45-3.23-4.82-7.56-8.69-12.53-11.35-4.98-2.65-10.6-4.1-16.4-4.1h-23.04c3.32,1.41,5.53,4.01,6.32,7.74h13.57c13.31,0,25.45,7.59,31.28,19.55l.8,1.64.8-1.64c5.83-11.96,17.98-19.55,31.28-19.55h13.57c.78-3.72,3-6.32,6.32-7.74h-23.04ZM234.2,100.93c4.63,1.66,9.14,3.48,13.51,5.45,4.37-1.97,8.87-3.8,13.51-5.45-4.36-2.29-8.86-4.44-13.51-6.43-4.64,1.99-9.15,4.13-13.51,6.43ZM235.09,109.66c-3.74-1.34-7.82-2.23-12.12-2.58-3.51,2.53-6.68,5.29-9.5,8.21,4.23-.4,8.37-.17,12.24.59,2.95.58,5.75,1.48,8.34,2.64.53.24,1.04.48,1.55.74,5.11,2.58,9.12,6.11,12.11,10.04,4.67-6.18,12.07-11.45,22-13.42,3.87-.76,8.01-.99,12.24-.59-2.82-2.92-5.99-5.67-9.5-8.21-4.3.35-8.39,1.24-12.12,2.58-4.95,1.77-9.17,4.27-12.62,7.17t0,0c-3.45-2.9-7.67-5.4-12.62-7.17t0,0ZM247.71,245.95h40.05s-36.28-5.18-40.05-32.45v32.45ZM247.71,213.5c-3.78,27.27-40.05,32.45-40.05,32.45h40.05s0-32.45,0-32.45ZM291.23,251.47c-.98-1.72-2.81-2.78-4.8-2.78h-77.34c-1.98,0-3.81,1.06-4.8,2.78l-2.14,3.74h91.21l-2.14-3.74Z"/>
  <text class="cls-7" transform="translate(246.28 236.38)"><tspan x="0" y="0">v</tspan></text>
</svg>