<?xml version="1.0" encoding="UTF-8"?> <svg xmlns="http://www.w3.org/2000/svg" width="381" height="275" viewBox="0 0 381 275" fill="none"><path d="M0 189.584H14.9204C17.5851 189.584 20.0324 190.136 22.2624 191.248C24.4169 192.314 26.1555 193.884 27.469 195.941C28.7446 197.922 29.3777 200.212 29.3777 202.802C29.3777 205.391 28.7446 207.7 27.469 209.728C26.1177 211.822 24.3885 213.411 22.2624 214.477C20.023 215.58 17.5756 216.141 14.9204 216.141H7.98462V231.526H0V189.584ZM15.1471 208.634C17.1504 208.634 18.6906 208.064 19.7773 206.915C20.9301 205.69 21.5159 204.325 21.5159 202.792C21.5159 201.231 20.9395 199.876 19.7773 198.726C18.6623 197.623 17.1126 197.062 15.1471 197.062H7.98462V208.616H15.1471V208.634Z" fill="url(#paint0_linear_1_6534)"></path><path d="M35.3311 189.584H43.0794V200.166V205.372C43.9299 203.961 45.1772 202.839 46.8402 201.998C48.5411 201.119 50.327 200.68 52.2169 200.68C55.8832 200.68 58.6896 201.764 60.6645 203.942C62.6299 206.12 63.6127 209.111 63.6127 212.925V231.517H55.8643V213.897C55.8643 211.953 55.3446 210.467 54.3051 209.438C53.2279 208.373 51.8389 207.84 50.138 207.84C48.0592 207.84 46.3583 208.663 45.0449 210.298C43.7314 211.944 43.0794 213.963 43.0794 216.365V231.526H35.3311V189.584Z" fill="url(#paint1_linear_1_6534)"></path><path d="M74.1503 229.115C72.2226 226.862 71.2588 223.759 71.2588 219.786V201.652H79.0639V218.87C79.0639 220.927 79.5458 222.516 80.5096 223.619C81.4734 224.759 82.7869 225.339 84.4405 225.339C86.6422 225.339 88.3903 224.535 89.7037 222.936C91.0172 221.375 91.6692 219.356 91.6692 216.87V201.652H100.051C101.515 201.652 102.252 200.923 102.252 199.474V194.726H108.035V199.306C108.035 201.942 107.383 203.905 106.07 205.195C104.756 206.494 102.753 207.139 100.06 207.139H99.427V231.508H92.1416V227.732H91.6786C90.7526 229.18 89.4769 230.321 87.8611 231.162C86.2831 232.003 84.4688 232.424 82.4278 232.424C78.7993 232.433 76.0401 231.321 74.1503 229.115Z" fill="url(#paint2_linear_1_6534)"></path><path d="M125.276 232.433C122.149 232.433 119.38 231.751 116.952 230.377C114.523 229.003 112.614 227.115 111.225 224.712C109.874 222.385 109.203 219.674 109.203 216.589C109.203 213.542 109.874 210.85 111.225 208.522C112.652 206.083 114.561 204.176 116.952 202.802C119.456 201.39 122.234 200.68 125.276 200.68C126.391 200.68 128.054 200.867 130.247 201.25C131.362 201.521 132.467 201.652 133.544 201.652C134.508 201.652 135.245 201.465 135.746 201.082C136.171 200.773 136.379 200.203 136.379 199.362V194.726H142.162V201.82C142.162 203.157 141.831 204.204 141.179 204.97C140.527 205.737 139.677 206.111 138.638 206.111C138.099 206.111 137.636 206.055 137.248 205.943V206.176C139.989 208.999 141.359 212.467 141.359 216.589C141.359 219.683 140.688 222.385 139.337 224.712C137.948 227.115 136.039 229.003 133.611 230.377C131.182 231.742 128.404 232.433 125.276 232.433ZM129.443 224.31C130.681 223.665 131.683 222.646 132.448 221.282C133.223 219.945 133.601 218.384 133.601 216.589C133.601 214.832 133.214 213.29 132.448 211.953C131.673 210.579 130.672 209.569 129.443 208.924C128.092 208.205 126.703 207.84 125.276 207.84C123.887 207.84 122.517 208.205 121.166 208.924C119.89 209.616 118.87 210.626 118.104 211.953C117.329 213.29 116.952 214.832 116.952 216.589C116.952 218.272 117.339 219.814 118.104 221.226C118.832 222.6 119.862 223.628 121.166 224.32C122.442 225.011 123.802 225.348 125.276 225.348C126.788 225.339 128.168 224.993 129.443 224.31Z" fill="url(#paint3_linear_1_6534)"></path><path d="M147.842 201.652H155.071V205.372H155.591C156.555 203.886 157.83 202.736 159.408 201.941C161.062 201.1 162.857 200.679 164.785 200.679C168.413 200.679 171.182 201.782 173.11 203.998C175 206.129 175.945 209.111 175.945 212.925V231.517H168.196V213.897C168.196 211.99 167.695 210.504 166.694 209.438C165.692 208.372 164.322 207.84 162.583 207.84C160.467 207.84 158.766 208.643 157.49 210.242C156.214 211.84 155.581 213.869 155.581 216.308V231.526H147.833V201.652H147.842Z" fill="url(#paint4_linear_1_6534)"></path><path d="M187.939 242.556C185.397 240.837 183.696 238.799 182.846 236.434L190.131 233.517C190.783 235.004 191.747 236.163 193.022 237.004C194.374 237.883 195.857 238.322 197.473 238.322C199.939 238.322 201.886 237.574 203.313 236.088C204.74 234.639 205.458 232.517 205.458 229.741V227.395H204.995C203.993 228.806 202.755 229.835 201.291 230.489C199.75 231.171 197.993 231.517 196.027 231.517C193.523 231.517 191.189 230.891 189.025 229.629C186.947 228.414 185.227 226.619 183.876 224.254C182.562 221.927 181.91 219.216 181.91 216.131C181.91 213.037 182.562 210.336 183.876 208.008C185.227 205.643 186.937 203.849 189.025 202.633C191.227 201.334 193.552 200.689 196.027 200.689C197.879 200.689 199.628 201.054 201.291 201.773C202.793 202.418 204.031 203.437 204.995 204.802H205.458V201.652H212.913V229.451C212.913 232.732 212.299 235.518 211.061 237.808C209.823 240.098 208.018 241.893 205.628 243.183C203.237 244.482 200.516 245.127 197.473 245.127C193.665 245.127 190.481 244.276 187.939 242.556ZM197.596 224.535C199.75 224.535 201.602 223.787 203.152 222.3C204.692 220.814 205.467 218.748 205.467 216.122C205.467 213.448 204.711 211.373 203.209 209.887C201.706 208.401 199.835 207.653 197.596 207.653C195.441 207.653 193.571 208.401 191.983 209.887C190.443 211.373 189.668 213.448 189.668 216.122C189.668 218.758 190.443 220.814 191.983 222.3C193.561 223.796 195.432 224.535 197.596 224.535Z" fill="url(#paint5_linear_1_6534)"></path><path d="M238.109 212.925H233.715V206.522H238.109V189.584H252.396C256.828 189.584 260.683 190.463 263.962 192.22C267.203 193.978 269.726 196.436 271.54 199.605C273.317 202.736 274.205 206.372 274.205 210.532C274.205 214.729 273.317 218.393 271.54 221.515C269.726 224.684 267.203 227.143 263.962 228.9C260.683 230.657 256.828 231.536 252.396 231.536H238.109V212.925ZM252.046 224.02C256.629 224.02 260.144 222.815 262.573 220.412C264.964 218.047 266.164 214.748 266.164 210.513C266.164 206.316 264.964 203.035 262.573 200.67C260.144 198.268 256.639 197.062 252.046 197.062H246.027V206.503H256.903V212.906H246.027V224.002H252.046V224.02Z" fill="url(#paint6_linear_1_6534)"></path><path d="M295.139 232.433C292.011 232.433 289.242 231.75 286.814 230.376C284.385 229.002 282.477 227.114 281.088 224.712C279.736 222.384 279.065 219.674 279.065 216.589C279.065 213.542 279.736 210.849 281.088 208.522C282.514 206.082 284.423 204.175 286.814 202.801C289.318 201.39 292.096 200.679 295.139 200.679C298.181 200.679 300.959 201.39 303.463 202.801C305.854 204.175 307.763 206.082 309.19 208.522C310.541 210.849 311.212 213.542 311.212 216.589C311.212 219.683 310.531 222.384 309.19 224.712C307.801 227.114 305.892 229.002 303.463 230.376C301.035 231.741 298.257 232.433 295.139 232.433ZM299.296 224.31C300.534 223.665 301.536 222.646 302.301 221.281C303.076 219.945 303.454 218.384 303.454 216.589C303.454 214.832 303.067 213.289 302.301 211.952C301.526 210.578 300.525 209.569 299.296 208.924C297.945 208.204 296.556 207.84 295.129 207.84C293.74 207.84 292.37 208.204 291.019 208.924C289.743 209.616 288.723 210.625 287.957 211.952C287.182 213.289 286.804 214.832 286.804 216.589C286.804 218.271 287.192 219.814 287.957 221.225C288.685 222.599 289.715 223.628 291.019 224.319C292.294 225.011 293.655 225.347 295.129 225.347C296.641 225.338 298.03 224.992 299.296 224.31Z" fill="url(#paint7_linear_1_6534)"></path><path d="M316.527 201.652H323.756V205.372H324.275C325.239 203.886 326.515 202.736 328.093 201.941C329.747 201.1 331.542 200.679 333.47 200.679C337.089 200.679 339.867 201.782 341.794 203.998C343.684 206.129 344.629 209.111 344.629 212.925V231.517H336.881V213.897C336.881 211.99 336.38 210.504 335.378 209.438C334.377 208.372 333.007 207.84 331.268 207.84C329.151 207.84 327.45 208.643 326.175 210.242C324.899 211.84 324.266 213.869 324.266 216.308V231.526H316.518V201.652H316.527Z" fill="url(#paint8_linear_1_6534)"></path><path d="M356.026 242.556C353.484 240.837 351.783 238.799 350.933 236.434L358.218 233.517C358.87 235.004 359.834 236.163 361.109 237.004C362.461 237.883 363.944 238.322 365.56 238.322C368.026 238.322 369.973 237.574 371.4 236.088C372.826 234.639 373.545 232.517 373.545 229.741V227.395H373.082C372.08 228.806 370.842 229.835 369.377 230.489C367.837 231.171 366.08 231.517 364.114 231.517C361.61 231.517 359.276 230.891 357.112 229.629C355.034 228.414 353.314 226.619 351.963 224.254C350.649 221.927 349.997 219.216 349.997 216.131C349.997 213.037 350.649 210.336 351.963 208.008C353.314 205.643 355.024 203.849 357.112 202.633C359.314 201.334 361.639 200.689 364.114 200.689C365.966 200.689 367.714 201.054 369.377 201.773C370.88 202.418 372.118 203.437 373.082 204.802H373.545V201.652H381V229.451C381 232.732 380.386 235.518 379.148 237.808C377.91 240.098 376.105 241.893 373.715 243.183C371.324 244.482 368.603 245.127 365.56 245.127C361.752 245.127 358.577 244.276 356.026 242.556ZM365.683 224.535C367.837 224.535 369.689 223.787 371.239 222.3C372.779 220.814 373.554 218.748 373.554 216.122C373.554 213.448 372.798 211.373 371.296 209.887C369.793 208.401 367.922 207.653 365.683 207.653C363.528 207.653 361.657 208.401 360.07 209.887C358.53 211.373 357.755 213.448 357.755 216.122C357.755 218.758 358.53 220.814 360.07 222.3C361.657 223.796 363.528 224.535 365.683 224.535Z" fill="url(#paint9_linear_1_6534)"></path><path d="M285.018 196.96L291.783 189.584H298.549L305.258 196.96V197.474H297.85L295.544 194.043H294.788L292.416 197.474H285.018V196.96Z" fill="url(#paint10_linear_1_6534)"></path><path d="M207.179 145.997L195.046 137.743V0.718384L207.179 8.9722V145.997Z" fill="url(#paint11_linear_1_6534)"></path><path d="M186.672 159.943L174.539 168.216V22.9L186.672 31.1538V159.943Z" fill="url(#paint12_linear_1_6534)"></path><path d="M227.675 96.0347L215.542 104.223V50.8022L227.675 59.0561V96.0347Z" fill="url(#paint13_linear_1_6534)"></path><path d="M154.025 109.841L166.196 118.114L166.158 64.6927L154.025 72.9372V109.841Z" fill="url(#paint14_linear_1_6534)"></path><path d="M170.371 61.823L165.93 64.8516V68.4223L170.371 65.4031V61.823Z" fill="url(#paint15_linear_1_6534)"></path><path d="M170.371 117.375L165.93 114.355V117.926L170.371 120.955V117.375Z" fill="url(#paint16_linear_1_6534)"></path><path d="M211.361 103.485V107.065L215.84 104.017V100.437L211.361 103.485Z" fill="url(#paint17_linear_1_6534)"></path><path d="M211.344 47.942V51.5221L215.842 54.5787V50.9986L211.344 47.942Z" fill="url(#paint18_linear_1_6534)"></path><path d="M84.0977 252.885H86.6112V261.915H97.4967V252.885H100.01V273.824H97.4967V264.28H86.6112V273.824H84.0977V252.885Z" fill="url(#paint19_linear_1_6534)"></path><path d="M128.142 274.281C126.101 274.281 124.249 273.795 122.595 272.823C120.942 271.851 119.638 270.533 118.693 268.851C117.748 267.177 117.275 265.336 117.275 263.336C117.275 261.354 117.748 259.531 118.693 257.849C119.638 256.175 120.932 254.848 122.595 253.876C124.268 252.885 126.12 252.39 128.142 252.39C130.145 252.39 131.978 252.885 133.66 253.876C135.342 254.867 136.646 256.185 137.591 257.849C138.536 259.522 139.009 261.354 139.009 263.336C139.009 265.336 138.536 267.168 137.591 268.851C136.646 270.505 135.342 271.832 133.66 272.823C132.016 273.795 130.183 274.281 128.142 274.281ZM132.328 270.823C133.575 270.103 134.577 269.094 135.333 267.794C136.079 266.523 136.457 265.037 136.457 263.336C136.457 261.681 136.079 260.204 135.333 258.905C134.586 257.606 133.585 256.605 132.328 255.876C131.062 255.138 129.663 254.764 128.142 254.764C126.621 254.764 125.222 255.138 123.956 255.876C122.709 256.596 121.707 257.606 120.951 258.905C120.205 260.195 119.827 261.672 119.827 263.336C119.827 265.027 120.205 266.514 120.951 267.794C121.698 269.094 122.699 270.094 123.956 270.823C125.184 271.543 126.583 271.907 128.142 271.907C129.701 271.907 131.09 271.543 132.328 270.823Z" fill="url(#paint20_linear_1_6534)"></path><path d="M156.556 252.885H159.069V271.449H168.311V273.824H156.556V252.885Z" fill="url(#paint21_linear_1_6534)"></path><path d="M185.497 252.885H191.875C194.068 252.885 195.967 253.325 197.564 254.203C199.161 255.082 200.399 256.316 201.287 257.914C202.156 259.494 202.591 261.307 202.591 263.345C202.591 265.42 202.156 267.243 201.287 268.804C200.417 270.365 199.18 271.59 197.564 272.487C195.929 273.384 194.03 273.833 191.875 273.833H185.497V252.885ZM191.875 271.449C194.36 271.449 196.345 270.739 197.819 269.309C199.302 267.879 200.039 265.888 200.039 263.336C200.039 260.803 199.302 258.821 197.819 257.391C196.335 255.961 194.351 255.25 191.875 255.25H188.011V271.44H191.875V271.449Z" fill="url(#paint22_linear_1_6534)"></path><path d="M220.148 252.885H222.662V273.824H220.148V252.885Z" fill="url(#paint23_linear_1_6534)"></path><path d="M241.269 252.885H244.33L254.951 269.533H255.064L254.951 265.504V252.876H257.465V273.814H254.866L243.782 256.362H243.669L243.782 260.391V273.814H241.269V252.885Z" fill="url(#paint24_linear_1_6534)"></path><path d="M280.216 272.851C278.524 271.898 277.182 270.589 276.2 268.907C275.217 267.234 274.726 265.373 274.726 263.336C274.726 261.335 275.217 259.494 276.2 257.793C277.182 256.119 278.515 254.801 280.216 253.848C281.945 252.876 283.778 252.39 285.706 252.39C287.246 252.39 288.71 252.67 290.09 253.222C291.441 253.773 292.566 254.549 293.473 255.54L291.715 257.307C291.026 256.465 290.156 255.839 289.117 255.418C288.058 254.979 286.934 254.764 285.734 254.764C284.269 254.764 282.89 255.129 281.576 255.848C280.291 256.549 279.252 257.55 278.458 258.849C277.664 260.148 277.277 261.634 277.277 263.336C277.277 265.046 277.674 266.551 278.458 267.851C279.252 269.122 280.282 270.122 281.576 270.851C282.861 271.552 284.25 271.907 285.734 271.907C287.123 271.907 288.304 271.692 289.287 271.253C290.232 270.832 291.054 270.253 291.772 269.514C292.273 268.982 292.689 268.327 293.01 267.542C293.303 266.822 293.492 265.972 293.586 265H285.762V262.681H295.93C296.024 263.289 296.071 263.794 296.071 264.196C296.071 265.467 295.873 266.729 295.467 267.963C295.079 269.122 294.418 270.187 293.473 271.16C291.507 273.235 288.918 274.272 285.706 274.272C283.74 274.282 281.916 273.805 280.216 272.851Z" fill="url(#paint25_linear_1_6534)"></path><defs><linearGradient id="paint0_linear_1_6534" x1="-17.5019" y1="217.769" x2="361.202" y2="87.7522" gradientUnits="userSpaceOnUse"><stop stop-color="#926037"></stop><stop offset="0.5" stop-color="#F5A663"></stop><stop offset="1" stop-color="#926037"></stop></linearGradient><linearGradient id="paint1_linear_1_6534" x1="-12.7978" y1="231.47" x2="365.906" y2="101.453" gradientUnits="userSpaceOnUse"><stop stop-color="#926037"></stop><stop offset="0.5" stop-color="#F5A663"></stop><stop offset="1" stop-color="#926037"></stop></linearGradient><linearGradient id="paint2_linear_1_6534" x1="-7.22922" y1="247.685" x2="371.475" y2="117.668" gradientUnits="userSpaceOnUse"><stop stop-color="#926037"></stop><stop offset="0.5" stop-color="#F5A663"></stop><stop offset="1" stop-color="#926037"></stop></linearGradient><linearGradient id="paint3_linear_1_6534" x1="-3.2945" y1="259.157" x2="375.409" y2="129.14" gradientUnits="userSpaceOnUse"><stop stop-color="#926037"></stop><stop offset="0.5" stop-color="#F5A663"></stop><stop offset="1" stop-color="#926037"></stop></linearGradient><linearGradient id="paint4_linear_1_6534" x1="0.685713" y1="270.746" x2="379.39" y2="140.729" gradientUnits="userSpaceOnUse"><stop stop-color="#926037"></stop><stop offset="0.5" stop-color="#F5A663"></stop><stop offset="1" stop-color="#926037"></stop></linearGradient><linearGradient id="paint5_linear_1_6534" x1="6.28388" y1="287.043" x2="384.988" y2="157.026" gradientUnits="userSpaceOnUse"><stop stop-color="#926037"></stop><stop offset="0.5" stop-color="#F5A663"></stop><stop offset="1" stop-color="#926037"></stop></linearGradient><linearGradient id="paint6_linear_1_6534" x1="7.68472" y1="291.139" x2="386.389" y2="161.123" gradientUnits="userSpaceOnUse"><stop stop-color="#926037"></stop><stop offset="0.5" stop-color="#F5A663"></stop><stop offset="1" stop-color="#926037"></stop></linearGradient><linearGradient id="paint7_linear_1_6534" x1="14.4631" y1="310.872" x2="393.167" y2="180.856" gradientUnits="userSpaceOnUse"><stop stop-color="#926037"></stop><stop offset="0.5" stop-color="#F5A663"></stop><stop offset="1" stop-color="#926037"></stop></linearGradient><linearGradient id="paint8_linear_1_6534" x1="18.127" y1="321.558" x2="396.831" y2="191.541" gradientUnits="userSpaceOnUse"><stop stop-color="#926037"></stop><stop offset="0.5" stop-color="#F5A663"></stop><stop offset="1" stop-color="#926037"></stop></linearGradient><linearGradient id="paint9_linear_1_6534" x1="23.6621" y1="337.678" x2="402.366" y2="207.661" gradientUnits="userSpaceOnUse"><stop stop-color="#926037"></stop><stop offset="0.5" stop-color="#F5A663"></stop><stop offset="1" stop-color="#926037"></stop></linearGradient><linearGradient id="paint10_linear_1_6534" x1="7.71785" y1="291.227" x2="386.422" y2="161.211" gradientUnits="userSpaceOnUse"><stop stop-color="#926037"></stop><stop offset="0.5" stop-color="#F5A663"></stop><stop offset="1" stop-color="#926037"></stop></linearGradient><linearGradient id="paint11_linear_1_6534" x1="129.755" y1="138.153" x2="244.483" y2="31.6958" gradientUnits="userSpaceOnUse"><stop stop-color="#926037"></stop><stop offset="0.5" stop-color="#F5A663"></stop><stop offset="1" stop-color="#926037"></stop></linearGradient><linearGradient id="paint12_linear_1_6534" x1="129.472" y1="137.851" x2="244.201" y2="31.3936" gradientUnits="userSpaceOnUse"><stop stop-color="#926037"></stop><stop offset="0.5" stop-color="#F5A663"></stop><stop offset="1" stop-color="#926037"></stop></linearGradient><linearGradient id="paint13_linear_1_6534" x1="139.158" y1="148.287" x2="253.887" y2="41.8294" gradientUnits="userSpaceOnUse"><stop stop-color="#926037"></stop><stop offset="0.5" stop-color="#F5A663"></stop><stop offset="1" stop-color="#926037"></stop></linearGradient><linearGradient id="paint14_linear_1_6534" x1="122.169" y1="129.98" x2="236.898" y2="23.5226" gradientUnits="userSpaceOnUse"><stop stop-color="#926037"></stop><stop offset="0.5" stop-color="#F5A663"></stop><stop offset="1" stop-color="#926037"></stop></linearGradient><linearGradient id="paint15_linear_1_6534" x1="110.536" y1="117.445" x2="225.265" y2="10.9876" gradientUnits="userSpaceOnUse"><stop stop-color="#926037"></stop><stop offset="0.5" stop-color="#F5A663"></stop><stop offset="1" stop-color="#926037"></stop></linearGradient><linearGradient id="paint16_linear_1_6534" x1="136.985" y1="145.948" x2="251.713" y2="39.491" gradientUnits="userSpaceOnUse"><stop stop-color="#926037"></stop><stop offset="0.5" stop-color="#F5A663"></stop><stop offset="1" stop-color="#926037"></stop></linearGradient><linearGradient id="paint17_linear_1_6534" x1="150.77" y1="160.804" x2="265.498" y2="54.3475" gradientUnits="userSpaceOnUse"><stop stop-color="#926037"></stop><stop offset="0.5" stop-color="#F5A663"></stop><stop offset="1" stop-color="#926037"></stop></linearGradient><linearGradient id="paint18_linear_1_6534" x1="124.332" y1="132.311" x2="239.061" y2="25.8544" gradientUnits="userSpaceOnUse"><stop stop-color="#926037"></stop><stop offset="0.5" stop-color="#F5A663"></stop><stop offset="1" stop-color="#926037"></stop></linearGradient><linearGradient id="paint19_linear_1_6534" x1="7.57073" y1="291.736" x2="386.275" y2="161.72" gradientUnits="userSpaceOnUse"><stop stop-color="#926037"></stop><stop offset="0.5" stop-color="#F5A663"></stop><stop offset="1" stop-color="#926037"></stop></linearGradient><linearGradient id="paint20_linear_1_6534" x1="11.3011" y1="302.598" x2="390.005" y2="172.581" gradientUnits="userSpaceOnUse"><stop stop-color="#926037"></stop><stop offset="0.5" stop-color="#F5A663"></stop><stop offset="1" stop-color="#926037"></stop></linearGradient><linearGradient id="paint21_linear_1_6534" x1="14.85" y1="312.936" x2="393.554" y2="182.919" gradientUnits="userSpaceOnUse"><stop stop-color="#926037"></stop><stop offset="0.5" stop-color="#F5A663"></stop><stop offset="1" stop-color="#926037"></stop></linearGradient><linearGradient id="paint22_linear_1_6534" x1="17.6765" y1="321.174" x2="396.381" y2="191.157" gradientUnits="userSpaceOnUse"><stop stop-color="#926037"></stop><stop offset="0.5" stop-color="#F5A663"></stop><stop offset="1" stop-color="#926037"></stop></linearGradient><linearGradient id="paint23_linear_1_6534" x1="20.949" y1="330.7" x2="399.652" y2="200.684" gradientUnits="userSpaceOnUse"><stop stop-color="#926037"></stop><stop offset="0.5" stop-color="#F5A663"></stop><stop offset="1" stop-color="#926037"></stop></linearGradient><linearGradient id="paint24_linear_1_6534" x1="23.8403" y1="339.121" x2="402.544" y2="209.104" gradientUnits="userSpaceOnUse"><stop stop-color="#926037"></stop><stop offset="0.5" stop-color="#F5A663"></stop><stop offset="1" stop-color="#926037"></stop></linearGradient><linearGradient id="paint25_linear_1_6534" x1="27.606" y1="350.098" x2="406.31" y2="220.081" gradientUnits="userSpaceOnUse"><stop stop-color="#926037"></stop><stop offset="0.5" stop-color="#F5A663"></stop><stop offset="1" stop-color="#926037"></stop></linearGradient></defs></svg> 